<svg xmlns="http://www.w3.org/2000/svg" xmlns:xlink="http://www.w3.org/1999/xlink" width="2000" zoomAndPan="magnify" viewBox="0 0 1500 1499.999933" height="2000" preserveAspectRatio="xMidYMid meet" version="1.0"><defs><clipPath id="557a611731"><path d="M 0 42.273438 L 1500 42.273438 L 1500 1457.523438 L 0 1457.523438 Z M 0 42.273438 " clip-rule="nonzero"/></clipPath><clipPath id="516014fce9"><path d="M 0 0.273438 L 1500 0.273438 L 1500 1415.523438 L 0 1415.523438 Z M 0 0.273438 " clip-rule="nonzero"/></clipPath><clipPath id="522e26184c"><rect x="0" width="1500" y="0" height="1416"/></clipPath></defs><g clip-path="url(#557a611731)"><g transform="matrix(1, 0, 0, 1, 0, 42)"><g clip-path="url(#522e26184c)"><g clip-path="url(#516014fce9)"><path fill="#000000" d="M 1499.355469 0.273438 L 0.644531 0.273438 L 0.644531 166.773438 L 1499.355469 166.773438 Z M 1499.355469 1249.023438 L 333.691406 1249.023438 L 333.691406 1415.523438 L 1499.355469 1415.523438 Z M 1499.355469 832.773438 L 0.644531 832.773438 L 0.644531 999.273438 L 1499.355469 999.273438 Z M 1499.355469 416.523438 L 333.691406 416.523438 L 333.691406 583.023438 L 1499.355469 583.023438 Z M 1499.355469 416.523438 " fill-opacity="1" fill-rule="nonzero"/></g></g></g></g></svg>